<?xml version="1.0" encoding="UTF-8"?>
<!DOCTYPE svg PUBLIC "-//W3C//DTD SVG 1.1//EN" "http://www.w3.org/Graphics/SVG/1.1/DTD/svg11.dtd">
<svg xmlns="http://www.w3.org/2000/svg" version="1.1" width="200px" height="172px" style="shape-rendering:geometricPrecision; text-rendering:geometricPrecision; image-rendering:optimizeQuality; fill-rule:evenodd; clip-rule:evenodd" xmlns:xlink="http://www.w3.org/1999/xlink">
<g><path style="opacity:1" fill="#d1d1d1" d="M -0.5,-0.5 C 66.1667,-0.5 132.833,-0.5 199.5,-0.5C 199.5,56.8333 199.5,114.167 199.5,171.5C 132.833,171.5 66.1667,171.5 -0.5,171.5C -0.5,114.167 -0.5,56.8333 -0.5,-0.5 Z"/></g>
<g><path style="opacity:1" fill="#050505" d="M 99.5,55.5 C 112.091,54.8731 120.258,60.5398 124,72.5C 128.124,88.6851 126.79,104.352 120,119.5C 112.424,127.268 103.59,129.102 93.5,125C 86.7414,120.329 82.908,113.829 82,105.5C 79.6319,92.2186 80.6319,79.2186 85,66.5C 88.3209,60.6598 93.1542,56.9931 99.5,55.5 Z"/></g>
<g><path style="opacity:1" fill="#cfcfcf" d="M 98.5,62.5 C 110.208,61.3674 116.708,66.7007 118,78.5C 118.87,88.8845 118.536,99.2179 117,109.5C 112.691,120.714 105.191,123.547 94.5,118C 91.5103,114.372 89.6769,110.205 89,105.5C 88.3333,96.1667 88.3333,86.8333 89,77.5C 89.6969,70.7386 92.8636,65.7386 98.5,62.5 Z"/></g>
</svg>
