<?xml version="1.0" encoding="UTF-8"?>
<!DOCTYPE svg PUBLIC "-//W3C//DTD SVG 1.1//EN" "http://www.w3.org/Graphics/SVG/1.1/DTD/svg11.dtd">
<svg xmlns="http://www.w3.org/2000/svg" version="1.1" width="200px" height="172px" style="shape-rendering:geometricPrecision; text-rendering:geometricPrecision; image-rendering:optimizeQuality; fill-rule:evenodd; clip-rule:evenodd" xmlns:xlink="http://www.w3.org/1999/xlink">
<g><path style="opacity:1" fill="#d1d1d1" d="M -0.5,-0.5 C 66.1667,-0.5 132.833,-0.5 199.5,-0.5C 199.5,56.8333 199.5,114.167 199.5,171.5C 132.833,171.5 66.1667,171.5 -0.5,171.5C -0.5,114.167 -0.5,56.8333 -0.5,-0.5 Z"/></g>
<g><path style="opacity:1" fill="#020202" d="M 102.5,126.5 C 102.667,105.831 102.5,85.164 102,64.5C 101.283,65.0442 100.783,65.7109 100.5,66.5C 96.5885,69.3757 92.7552,72.3757 89,75.5C 87.0471,74.2539 86.0471,72.5872 86,70.5C 91.4081,65.8804 96.9081,61.3804 102.5,57C 104.81,56.5034 107.143,56.3367 109.5,56.5C 109.5,79.8333 109.5,103.167 109.5,126.5C 107.167,126.5 104.833,126.5 102.5,126.5 Z"/></g>
<g><path style="opacity:1" fill="#969696" d="M 102.5,126.5 C 101.833,106.5 101.167,86.5 100.5,66.5C 100.783,65.7109 101.283,65.0442 102,64.5C 102.5,85.164 102.667,105.831 102.5,126.5 Z"/></g>
</svg>
