<?xml version="1.0" encoding="UTF-8"?>
<!DOCTYPE svg PUBLIC "-//W3C//DTD SVG 1.1//EN" "http://www.w3.org/Graphics/SVG/1.1/DTD/svg11.dtd">
<svg xmlns="http://www.w3.org/2000/svg" version="1.1" width="200px" height="172px" style="shape-rendering:geometricPrecision; text-rendering:geometricPrecision; image-rendering:optimizeQuality; fill-rule:evenodd; clip-rule:evenodd" xmlns:xlink="http://www.w3.org/1999/xlink">
<g><path style="opacity:1" fill="#d1d1d1" d="M -0.5,-0.5 C 66.1667,-0.5 132.833,-0.5 199.5,-0.5C 199.5,56.8333 199.5,114.167 199.5,171.5C 132.833,171.5 66.1667,171.5 -0.5,171.5C -0.5,114.167 -0.5,56.8333 -0.5,-0.5 Z"/></g>
<g><path style="opacity:1" fill="#030303" d="M 91.5,117.5 C 90.9569,117.56 90.6236,117.893 90.5,118.5C 102.148,119.499 113.814,119.832 125.5,119.5C 125.5,121.833 125.5,124.167 125.5,126.5C 110.5,126.5 95.5,126.5 80.5,126.5C 80.3367,124.143 80.5034,121.81 81,119.5C 91.0303,109.804 100.697,99.8039 110,89.5C 115.825,82.3993 116.825,74.7326 113,66.5C 111.786,64.9512 110.286,63.7845 108.5,63C 99.863,61.0775 92.1964,62.9109 85.5,68.5C 84.3523,66.8513 83.019,65.3513 81.5,64C 91.7998,55.3947 103.133,53.728 115.5,59C 122.137,64.7106 124.304,71.8772 122,80.5C 120.941,83.6179 119.608,86.6179 118,89.5C 109.328,99.0049 100.495,108.338 91.5,117.5 Z"/></g>
<g><path style="opacity:1" fill="#a0a0a0" d="M 91.5,117.5 C 102.988,118.495 114.655,118.828 126.5,118.5C 126.806,121.385 126.473,124.052 125.5,126.5C 125.5,124.167 125.5,121.833 125.5,119.5C 113.814,119.832 102.148,119.499 90.5,118.5C 90.6236,117.893 90.9569,117.56 91.5,117.5 Z"/></g>
</svg>
