<?xml version="1.0" encoding="UTF-8"?>
<!DOCTYPE svg PUBLIC "-//W3C//DTD SVG 1.1//EN" "http://www.w3.org/Graphics/SVG/1.1/DTD/svg11.dtd">
<svg xmlns="http://www.w3.org/2000/svg" version="1.1" width="200px" height="172px" style="shape-rendering:geometricPrecision; text-rendering:geometricPrecision; image-rendering:optimizeQuality; fill-rule:evenodd; clip-rule:evenodd" xmlns:xlink="http://www.w3.org/1999/xlink">
<g><path style="opacity:1" fill="#d1d1d1" d="M -0.5,-0.5 C 66.1667,-0.5 132.833,-0.5 199.5,-0.5C 199.5,56.8333 199.5,114.167 199.5,171.5C 132.833,171.5 66.1667,171.5 -0.5,171.5C -0.5,114.167 -0.5,56.8333 -0.5,-0.5 Z"/></g>
<g><path style="opacity:1" fill="#070707" d="M 100.5,93.5 C 97.7131,92.5233 94.7131,92.19 91.5,92.5C 91.5,90.5 91.5,88.5 91.5,86.5C 99.1604,87.6319 106.16,86.1319 112.5,82C 116.44,76.2657 116.44,70.599 112.5,65C 102.794,61.1464 93.4602,61.9797 84.5,67.5C 83.3523,65.8513 82.019,64.3513 80.5,63C 92.2771,54.6454 104.61,53.6454 117.5,60C 125.677,68.9558 125.344,77.6224 116.5,86C 114.158,87.1711 111.824,88.3378 109.5,89.5C 125.216,93.9431 129.383,103.61 122,118.5C 115.353,124.83 107.353,127.83 98,127.5C 92.3122,127.136 86.8122,125.969 81.5,124C 80.5769,121.959 80.2436,119.792 80.5,117.5C 89.6122,120.341 98.9455,121.174 108.5,120C 117.301,115.606 119.801,108.773 116,99.5C 111.898,94.8531 106.731,92.8531 100.5,93.5 Z"/></g>
<g><path style="opacity:1" fill="#585858" d="M 91.5,86.5 C 91.5,88.5 91.5,90.5 91.5,92.5C 94.7131,92.19 97.7131,92.5233 100.5,93.5C 97.1667,93.5 93.8333,93.5 90.5,93.5C 90.1984,90.9407 90.5318,88.6074 91.5,86.5 Z"/></g>
</svg>
