<?xml version="1.0" encoding="UTF-8"?>
<!DOCTYPE svg PUBLIC "-//W3C//DTD SVG 1.1//EN" "http://www.w3.org/Graphics/SVG/1.1/DTD/svg11.dtd">
<svg xmlns="http://www.w3.org/2000/svg" version="1.1" width="200px" height="172px" style="shape-rendering:geometricPrecision; text-rendering:geometricPrecision; image-rendering:optimizeQuality; fill-rule:evenodd; clip-rule:evenodd" xmlns:xlink="http://www.w3.org/1999/xlink">
<g><path style="opacity:1" fill="#d1d1d1" d="M -0.5,-0.5 C 66.1667,-0.5 132.833,-0.5 199.5,-0.5C 199.5,56.8333 199.5,114.167 199.5,171.5C 132.833,171.5 66.1667,171.5 -0.5,171.5C -0.5,114.167 -0.5,56.8333 -0.5,-0.5 Z"/></g>
<g><path style="opacity:1" fill="#040404" d="M 110.5,56.5 C 113.167,56.5 115.833,56.5 118.5,56.5C 118.5,72.1667 118.5,87.8333 118.5,103.5C 122.167,103.5 125.833,103.5 129.5,103.5C 129.5,105.833 129.5,108.167 129.5,110.5C 125.833,110.5 122.167,110.5 118.5,110.5C 118.5,115.833 118.5,121.167 118.5,126.5C 116.167,126.5 113.833,126.5 111.5,126.5C 111.5,121.167 111.5,115.833 111.5,110.5C 100.167,110.5 88.8333,110.5 77.5,110.5C 77.3367,108.143 77.5034,105.81 78,103.5C 89.0791,87.9351 99.9125,72.2684 110.5,56.5 Z"/></g>
<g><path style="opacity:1" fill="#cecece" d="M 110.5,66.5 C 111.495,78.6554 111.829,90.9887 111.5,103.5C 102.827,103.666 94.1603,103.5 85.5,103C 94.2139,91.0649 102.547,78.8982 110.5,66.5 Z"/></g>
<g><path style="opacity:1" fill="#464646" d="M 111.5,103.5 C 111.829,90.9887 111.495,78.6554 110.5,66.5C 110.783,65.7109 111.283,65.0442 112,64.5C 112.827,77.6732 112.66,90.6732 111.5,103.5 Z"/></g>
</svg>
