<?xml version="1.0" encoding="UTF-8"?>
<!DOCTYPE svg PUBLIC "-//W3C//DTD SVG 1.1//EN" "http://www.w3.org/Graphics/SVG/1.1/DTD/svg11.dtd">
<svg xmlns="http://www.w3.org/2000/svg" version="1.1" width="200px" height="172px" style="shape-rendering:geometricPrecision; text-rendering:geometricPrecision; image-rendering:optimizeQuality; fill-rule:evenodd; clip-rule:evenodd" xmlns:xlink="http://www.w3.org/1999/xlink">
<g><path style="opacity:1" fill="#d1d1d1" d="M -0.5,-0.5 C 66.1667,-0.5 132.833,-0.5 199.5,-0.5C 199.5,56.8333 199.5,114.167 199.5,171.5C 132.833,171.5 66.1667,171.5 -0.5,171.5C -0.5,114.167 -0.5,56.8333 -0.5,-0.5 Z"/></g>
<g><path style="opacity:1" fill="#060606" d="M 82.5,123.5 C 82.2053,121.265 82.5386,119.265 83.5,117.5C 93.8737,121.83 104.04,121.497 114,116.5C 117.819,110.207 118.485,103.541 116,96.5C 114.062,93.8941 111.562,92.0608 108.5,91C 101.586,90.1888 94.7524,90.3555 88,91.5C 87,90.8333 86,90.1667 85,89.5C 84.8899,78.4828 85.3899,67.4828 86.5,56.5C 97.8333,56.5 109.167,56.5 120.5,56.5C 120.5,58.8333 120.5,61.1667 120.5,63.5C 111.167,63.5 101.833,63.5 92.5,63.5C 91.7684,70.4756 91.4351,77.4756 91.5,84.5C 102.326,82.0011 112.159,84.0011 121,90.5C 128.08,102.541 126.58,113.374 116.5,123C 105.154,128.763 93.821,128.929 82.5,123.5 Z"/></g>
<g><path style="opacity:1" fill="#818181" d="M 83.5,117.5 C 82.5386,119.265 82.2053,121.265 82.5,123.5C 81.2031,121.307 81.2031,118.973 82.5,116.5C 83.1067,116.624 83.44,116.957 83.5,117.5 Z"/></g>
</svg>
