<?xml version="1.0" encoding="UTF-8"?>
<!DOCTYPE svg PUBLIC "-//W3C//DTD SVG 1.1//EN" "http://www.w3.org/Graphics/SVG/1.1/DTD/svg11.dtd">
<svg xmlns="http://www.w3.org/2000/svg" version="1.1" width="200px" height="172px" style="shape-rendering:geometricPrecision; text-rendering:geometricPrecision; image-rendering:optimizeQuality; fill-rule:evenodd; clip-rule:evenodd" xmlns:xlink="http://www.w3.org/1999/xlink">
<g><path style="opacity:1" fill="#d1d1d1" d="M -0.5,-0.5 C 66.1667,-0.5 132.833,-0.5 199.5,-0.5C 199.5,56.8333 199.5,114.167 199.5,171.5C 132.833,171.5 66.1667,171.5 -0.5,171.5C -0.5,114.167 -0.5,56.8333 -0.5,-0.5 Z"/></g>
<g><path style="opacity:1" fill="#090909" d="M 106.5,55.5 C 111.547,55.3375 116.547,55.6708 121.5,56.5C 121.5,58.5 121.5,60.5 121.5,62.5C 99.8614,59.3054 89.3614,68.6387 90,90.5C 98.2983,81.8375 107.798,80.3375 118.5,86C 126.123,93.7618 128.289,102.928 125,113.5C 118.335,126.391 108.168,130.224 94.5,125C 88.3889,121.551 84.5556,116.385 83,109.5C 79.8097,94.8795 81.4764,80.8795 88,67.5C 90.5,65 93,62.5 95.5,60C 99.307,58.5716 102.974,57.0716 106.5,55.5 Z"/></g>
<g><path style="opacity:1" fill="#cdcdcd" d="M 100.5,88.5 C 114.421,87.923 120.588,94.5897 119,108.5C 115.014,120.74 107.181,123.907 95.5,118C 89.8855,112.25 88.0521,105.417 90,97.5C 92.4888,93.1675 95.9888,90.1675 100.5,88.5 Z"/></g>
</svg>
