<?xml version="1.0" encoding="UTF-8"?>
<!DOCTYPE svg PUBLIC "-//W3C//DTD SVG 1.1//EN" "http://www.w3.org/Graphics/SVG/1.1/DTD/svg11.dtd">
<svg xmlns="http://www.w3.org/2000/svg" version="1.1" width="200px" height="172px" style="shape-rendering:geometricPrecision; text-rendering:geometricPrecision; image-rendering:optimizeQuality; fill-rule:evenodd; clip-rule:evenodd" xmlns:xlink="http://www.w3.org/1999/xlink">
<g><path style="opacity:1" fill="#d1d1d1" d="M -0.5,-0.5 C 66.1667,-0.5 132.833,-0.5 199.5,-0.5C 199.5,56.8333 199.5,114.167 199.5,171.5C 132.833,171.5 66.1667,171.5 -0.5,171.5C -0.5,114.167 -0.5,56.8333 -0.5,-0.5 Z"/></g>
<g><path style="opacity:1" fill="#030303" d="M 80.5,56.5 C 95.8333,56.5 111.167,56.5 126.5,56.5C 126.663,58.8568 126.497,61.1902 126,63.5C 116.629,84.4082 107.129,105.242 97.5,126C 94.8333,126.667 92.1667,126.667 89.5,126C 99.3599,105.419 109.027,84.7518 118.5,64C 105.838,63.5001 93.1711,63.3334 80.5,63.5C 80.5,61.1667 80.5,58.8333 80.5,56.5 Z"/></g>
</svg>
