<?xml version="1.0" encoding="UTF-8"?>
<!DOCTYPE svg PUBLIC "-//W3C//DTD SVG 1.1//EN" "http://www.w3.org/Graphics/SVG/1.1/DTD/svg11.dtd">
<svg xmlns="http://www.w3.org/2000/svg" version="1.1" width="200px" height="172px" style="shape-rendering:geometricPrecision; text-rendering:geometricPrecision; image-rendering:optimizeQuality; fill-rule:evenodd; clip-rule:evenodd" xmlns:xlink="http://www.w3.org/1999/xlink">
<g><path style="opacity:1" fill="#d1d1d1" d="M -0.5,-0.5 C 66.1667,-0.5 132.833,-0.5 199.5,-0.5C 199.5,56.8333 199.5,114.167 199.5,171.5C 132.833,171.5 66.1667,171.5 -0.5,171.5C -0.5,114.167 -0.5,56.8333 -0.5,-0.5 Z"/></g>
<g><path style="opacity:1" fill="#070707" d="M 100.5,55.5 C 106.87,55.5404 112.87,57.0404 118.5,60C 127.218,72.776 124.551,82.6093 110.5,89.5C 115.085,91.9188 119.252,94.9188 123,98.5C 129.346,111.465 125.846,120.632 112.5,126C 103.707,128.653 95.3732,127.653 87.5,123C 76.7216,108.967 79.3883,97.967 95.5,90C 85.4483,85.2645 81.6149,77.4312 84,66.5C 84.8834,63.8976 86.3834,61.7309 88.5,60C 92.3011,57.5837 96.3011,56.0837 100.5,55.5 Z"/></g>
<g><path style="opacity:1" fill="#cbcbcb" d="M 99.5,61.5 C 114.213,60.6845 119.046,67.0178 114,80.5C 104.73,89.052 97.0635,87.7187 91,76.5C 89.204,68.7491 92.0374,63.7491 99.5,61.5 Z"/></g>
<g><path style="opacity:1" fill="#cdcdcd" d="M 99.5,93.5 C 106.986,94.3273 113.152,97.6606 118,103.5C 119.241,117.583 112.741,123.416 98.5,121C 89.73,118.298 86.5633,112.464 89,103.5C 91.7379,99.2595 95.2379,95.9262 99.5,93.5 Z"/></g>
</svg>
