<?xml version="1.0" encoding="UTF-8"?>
<!DOCTYPE svg PUBLIC "-//W3C//DTD SVG 1.1//EN" "http://www.w3.org/Graphics/SVG/1.1/DTD/svg11.dtd">
<svg xmlns="http://www.w3.org/2000/svg" version="1.1" width="200px" height="172px" style="shape-rendering:geometricPrecision; text-rendering:geometricPrecision; image-rendering:optimizeQuality; fill-rule:evenodd; clip-rule:evenodd" xmlns:xlink="http://www.w3.org/1999/xlink">
<g><path style="opacity:1" fill="#d1d1d1" d="M -0.5,-0.5 C 66.1667,-0.5 132.833,-0.5 199.5,-0.5C 199.5,56.8333 199.5,114.167 199.5,171.5C 132.833,171.5 66.1667,171.5 -0.5,171.5C -0.5,114.167 -0.5,56.8333 -0.5,-0.5 Z"/></g>
<g><path style="opacity:1" fill="#080808" d="M 98.5,55.5 C 113.095,55.2648 121.929,62.2648 125,76.5C 126.562,88.8635 125.229,100.863 121,112.5C 116.156,121.326 108.656,126.16 98.5,127C 94.152,127.415 89.8187,127.249 85.5,126.5C 85.5,124.5 85.5,122.5 85.5,120.5C 107.689,124.097 118.356,114.764 117.5,92.5C 108.883,100.565 99.2164,102.065 88.5,97C 78.3086,85.2433 77.9752,73.2433 87.5,61C 90.9905,58.588 94.6571,56.7547 98.5,55.5 Z"/></g>
<g><path style="opacity:1" fill="#cdcdcd" d="M 96.5,62.5 C 112.19,61.3577 119.357,68.691 118,84.5C 113.581,92.6238 106.747,95.7905 97.5,94C 93.3333,92.5 90.5,89.6667 89,85.5C 86.354,75.9206 88.854,68.254 96.5,62.5 Z"/></g>
</svg>
