<?xml version="1.0" encoding="UTF-8"?>
<!DOCTYPE svg PUBLIC "-//W3C//DTD SVG 1.1//EN" "http://www.w3.org/Graphics/SVG/1.1/DTD/svg11.dtd">
<svg xmlns="http://www.w3.org/2000/svg" version="1.1" width="200px" height="172px" style="shape-rendering:geometricPrecision; text-rendering:geometricPrecision; image-rendering:optimizeQuality; fill-rule:evenodd; clip-rule:evenodd" xmlns:xlink="http://www.w3.org/1999/xlink">
<g><path style="opacity:1" fill="#5200fe" d="M -0.5,-0.5 C 66.1667,-0.5 132.833,-0.5 199.5,-0.5C 199.5,56.8333 199.5,114.167 199.5,171.5C 132.833,171.5 66.1667,171.5 -0.5,171.5C -0.5,114.167 -0.5,56.8333 -0.5,-0.5 Z"/></g>
<g><path style="opacity:1" fill="#000000" d="M 81.5,78.5 C 96.1667,78.5 110.833,78.5 125.5,78.5C 125.5,80.5 125.5,82.5 125.5,84.5C 110.833,84.5 96.1667,84.5 81.5,84.5C 81.5,82.5 81.5,80.5 81.5,78.5 Z"/></g>
<g><path style="opacity:1" fill="#000000" d="M 81.5,99.5 C 96.1667,99.5 110.833,99.5 125.5,99.5C 125.5,101.5 125.5,103.5 125.5,105.5C 110.833,105.5 96.1667,105.5 81.5,105.5C 81.5,103.5 81.5,101.5 81.5,99.5 Z"/></g>
</svg>
